# xmcd
# 
# Track frame offsets:
#     150
#     22389
#     39055
#     63904
#     89679
#     101633
#     124860
#     145469
#     168784
#     194100
#     213759
#     244463
# 
# Disc length: 3514
# 
# Revision: 1
# Processed by: cddbd v1.5.2PL0 Copyright (c) Steve Scherf et al.
# Submitted via: BonkEnc v1.0.6
# 
DISCID=b20db80c
DTITLE=THE ECCENTRIC OPERA - THE ECCENTRIC OPERA BEST
DYEAR=2004
DGENRE=JPop
TTITLE0=Serenade
TTITLE1=Jupiter
TTITLE2=Irressistiblement
TTITLE3=Bolero
TTITLE4=Sonatine
TTITLE5=Pavane
TTITLE6=Fuge G Moll
TTITLE7=Ponta De Areia~Apenas Um Apenas Voce (Only One Only You)
TTITLE8=Songs My Mother Taught Me
TTITLE9=The First Noel
TTITLE10=La Chanson D'Eve
TTITLE11=Samsara
EXTD=YEAR: 2004
EXTT0=
EXTT1=
EXTT2=
EXTT3=
EXTT4=
EXTT5=
EXTT6=
EXTT7=
EXTT8=
EXTT9=
EXTT10=
EXTT11=
PLAYORDER=
